<?xml version="1.0" encoding="UTF-8"?>
<svg width="700pt" height="700pt" version="1.0" viewBox="0 0 700 700" xmlns="http://www.w3.org/2000/svg">
  <g transform="translate(0 700) scale(.1 -.1)">
    <path d="m1870 5889c-36-5-92-14-125-20s-71-13-85-16c-55-10-238-76-325-118-236-113-472-316-612-526-69-104-152-278-168-353-3-11-11-40-19-65-61-193-52-557 20-829 73-276 215-542 405-757 226-256 493-469 1054-837 302-198 518-341 530-350 6-5 69-53 142-107 248-186 421-349 577-543 23-29 117-175 135-210 29-56 126-74 172-32 10 9 36 46 58 83 65 109 177 248 301 371 251 252 430 384 1140 844 113 73 442 301 480 333 8 7 31 25 51 40 151 116 349 302 450 423 199 238 324 477 394 748 13 53 26 111 29 127 11 71 19 121 22 140 3 11 6 83 8 160 8 315-70 584-239 830-62 91-72 102-180 211-177 177-377 299-622 380-105 34-118 38-213 54-115 21-159 24-300 25-149 0-245-7-321-24-24-6-60-13-79-16-66-11-245-76-345-125-98-47-197-107-203-122-2-5-8-8-14-8-29 0-259-219-335-320-41-55-143-227-143-242 0-23-19-2-43 48-73 148-252 365-382 463-236 177-486 288-740 327-27 4-57 9-65 11-33 8-349 10-410 2z"/>
  </g>
</svg>
